<?xml version="1.0" standalone="no"?>
<!DOCTYPE svg PUBLIC "-//W3C//DTD SVG 20010904//EN"
 "http://www.w3.org/TR/2001/REC-SVG-20010904/DTD/svg10.dtd">
<svg version="1.0" xmlns="http://www.w3.org/2000/svg"
 width="512.000000pt" height="512.000000pt" viewBox="0 0 512.000000 512.000000"
 preserveAspectRatio="xMidYMid meet">
<metadata>
Created by potrace 1.11, written by Peter Selinger 2001-2013
</metadata>
<g transform="translate(0.000000,512.000000) scale(0.100000,-0.100000)"
fill="#000000" stroke="none">
<path d="M1848 4788 c-2 -27 0 -48 3 -48 3 0 4 -12 2 -27 -7 -57 -8 -213 -1
-213 3 0 4 -8 2 -17 -7 -29 -10 -143 -4 -143 4 0 4 -16 2 -35 -4 -30 -8 -35
-31 -36 -14 0 -110 0 -213 -1 l-187 0 2 -129 c2 -70 0 -134 -3 -141 -4 -10
-38 -14 -138 -14 -73 -1 -135 -4 -139 -7 -3 -4 -6 -68 -6 -142 1 -94 -3 -135
-11 -136 -6 -1 -69 -2 -141 -3 l-130 -1 0 -492 c0 -271 -2 -494 -5 -495 -3 0
-131 -2 -285 -3 l-280 -2 0 779 c0 684 -2 779 -15 783 -8 2 -72 4 -142 3
l-128 -1 0 -782 0 -782 136 1 c80 1 139 -3 143 -9 4 -5 7 -69 7 -142 -1 -110
1 -132 14 -135 8 -2 135 -3 283 -3 179 1 267 -2 268 -10 1 -5 2 -228 3 -495
l1 -485 277 -1 c153 0 281 -3 285 -7 3 -4 7 -163 7 -355 l1 -347 355 0 354 0
0 353 c0 311 2 352 15 353 9 0 201 1 427 2 l411 2 0 -355 0 -355 354 -2 354
-1 2 -279 c1 -153 2 -281 2 -284 1 -3 128 -5 284 -5 l282 1 1 282 c0 195 -3
283 -10 284 -6 0 -134 0 -283 1 l-273 0 -1 26 c-4 132 0 674 5 679 3 4 131 7
284 7 l277 1 2 475 c1 261 2 484 2 496 1 20 4 20 284 20 l282 -1 1 135 c0 74
-3 140 -7 145 -5 6 -110 10 -283 9 -196 -1 -276 2 -277 10 0 6 -1 229 -2 496
l-2 485 -140 0 -140 0 0 143 0 142 -25 1 c-14 1 -78 1 -142 1 l-118 0 -1 27
c0 14 -2 78 -2 141 l-2 115 -212 0 -212 0 0 240 c0 132 0 260 0 285 l-1 46
-137 -2 c-76 -1 -140 -2 -143 -3 -3 0 -5 -127 -4 -281 l1 -280 -41 -1 c-61 0
-703 -1 -762 0 l-50 1 0 280 c1 154 -1 281 -4 281 -3 1 -67 2 -142 3 l-136 1
-4 -47z m397 -1518 l30 0 -1 -557 c-1 -307 -2 -563 -3 -570 -1 -9 -72 -11
-283 -10 l-281 2 -1 567 -1 567 100 3 c82 3 221 2 440 -2z m1166 -20 c3 -73 4
-1087 1 -1101 -3 -15 -32 -17 -283 -18 -153 0 -280 3 -280 7 -1 4 -2 259 -3
567 l-1 560 40 5 c22 3 149 5 283 5 l242 0 1 -25z"/>
<path d="M4839 4267 c-1 -1 -2 -353 -3 -783 l-1 -781 143 0 142 0 0 782 0 783
-140 0 c-77 0 -141 -1 -141 -1z"/>
<path d="M939 710 l-85 -5 0 -280 1 -280 283 -1 c196 0 282 3 283 10 0 6 2
134 2 284 l2 272 -45 0 c-25 1 -115 2 -200 3 -85 1 -194 0 -241 -3z"/>
</g>
</svg>
